<svg width="29" height="29" viewBox="0 0 29 29" fill="none" xmlns="http://www.w3.org/2000/svg">
<g filter="url(#filter0_d_138_826)">
<path d="M18.0768 9.63838L9.69899 1.26061H22.4889C22.9266 1.26061 23.2417 1.4532 23.4343 1.83838C23.6269 2.22357 23.5919 2.59125 23.3293 2.94141L18.0768 9.63838ZM23.303 20.8L17.2364 14.7333V17.0182C17.2364 17.3158 17.1355 17.5655 16.9338 17.7672C16.7321 17.9689 16.4828 18.0694 16.1859 18.0687H14.0848C13.7872 18.0687 13.5375 17.9678 13.3358 17.7661C13.1341 17.5644 13.0336 17.3151 13.0343 17.0182V10.5313L4 1.49697L5.47071 0L24.8 19.3293L23.303 20.8Z" fill="white"/>
</g>
<defs>
<filter id="filter0_d_138_826" x="0" y="0" width="28.8" height="28.8" filterUnits="userSpaceOnUse" color-interpolation-filters="sRGB">
<feFlood flood-opacity="0" result="BackgroundImageFix"/>
<feColorMatrix in="SourceAlpha" type="matrix" values="0 0 0 0 0 0 0 0 0 0 0 0 0 0 0 0 0 0 127 0" result="hardAlpha"/>
<feOffset dy="4"/>
<feGaussianBlur stdDeviation="2"/>
<feComposite in2="hardAlpha" operator="out"/>
<feColorMatrix type="matrix" values="0 0 0 0 0 0 0 0 0 0 0 0 0 0 0 0 0 0 0.25 0"/>
<feBlend mode="normal" in2="BackgroundImageFix" result="effect1_dropShadow_138_826"/>
<feBlend mode="normal" in="SourceGraphic" in2="effect1_dropShadow_138_826" result="shape"/>
</filter>
</defs>
</svg>
