<svg width="30" height="30" viewBox="0 0 30 30" fill="none" xmlns="http://www.w3.org/2000/svg">
<g clip-path="url(#clip0_8_1246)">
<g filter="url(#filter0_d_8_1246)">
<path d="M13.75 25C13.3958 25 13.0992 24.88 12.86 24.64C12.62 24.4008 12.5 24.1042 12.5 23.75V16.25L5.25001 7C4.93751 6.58333 4.89084 6.14583 5.11001 5.6875C5.32834 5.22917 5.70834 5 6.25001 5H23.75C24.2917 5 24.6721 5.22917 24.8913 5.6875C25.1096 6.14583 25.0625 6.58333 24.75 7L17.5 16.25V23.75C17.5 24.1042 17.3804 24.4008 17.1413 24.64C16.9013 24.88 16.6042 25 16.25 25H13.75Z" fill="white"/>
</g>
</g>
<defs>
<filter id="filter0_d_8_1246" x="0.974487" y="5" width="28.0515" height="28" filterUnits="userSpaceOnUse" color-interpolation-filters="sRGB">
<feFlood flood-opacity="0" result="BackgroundImageFix"/>
<feColorMatrix in="SourceAlpha" type="matrix" values="0 0 0 0 0 0 0 0 0 0 0 0 0 0 0 0 0 0 127 0" result="hardAlpha"/>
<feOffset dy="4"/>
<feGaussianBlur stdDeviation="2"/>
<feComposite in2="hardAlpha" operator="out"/>
<feColorMatrix type="matrix" values="0 0 0 0 0 0 0 0 0 0 0 0 0 0 0 0 0 0 0.25 0"/>
<feBlend mode="normal" in2="BackgroundImageFix" result="effect1_dropShadow_8_1246"/>
<feBlend mode="normal" in="SourceGraphic" in2="effect1_dropShadow_8_1246" result="shape"/>
</filter>
<clipPath id="clip0_8_1246">
<rect width="30" height="30" fill="white"/>
</clipPath>
</defs>
</svg>
