<svg width="68" height="63" viewBox="0 0 68 63" fill="none" xmlns="http://www.w3.org/2000/svg">
<path d="M31.2375 55.125V49.4813C28.7347 48.9562 26.5748 47.95 24.7577 46.4625C22.9387 44.975 21.6042 42.875 20.7542 40.1625L25.9958 38.1938C26.7042 40.2938 27.7553 41.8906 29.1493 42.9844C30.5414 44.0781 32.3708 44.625 34.6375 44.625C36.5736 44.625 38.215 44.2207 39.5618 43.4123C40.9067 42.602 41.5792 41.3438 41.5792 39.6375C41.5792 38.1063 41.0597 36.8918 40.0208 35.994C38.9819 35.098 36.5736 34.0813 32.7958 32.9438C28.7347 31.7625 25.9486 30.352 24.4375 28.7122C22.9264 27.0707 22.1708 25.0687 22.1708 22.7062C22.1708 19.8625 23.1625 17.6531 25.1458 16.0781C27.1292 14.5031 29.1597 13.6062 31.2375 13.3875V7.875H36.9042V13.3875C39.2653 13.7375 41.2137 14.5355 42.7493 15.7815C44.2831 17.0293 45.4042 18.55 46.1125 20.3438L40.8708 22.4438C40.3042 21.0438 39.5014 19.9937 38.4625 19.2937C37.4236 18.5938 36.0069 18.2437 34.2125 18.2437C32.1347 18.2437 30.5528 18.6708 29.4667 19.5248C28.3805 20.377 27.8375 21.4375 27.8375 22.7062C27.8375 24.15 28.5458 25.2875 29.9625 26.1187C31.3792 26.95 33.8347 27.825 37.3292 28.7437C40.5875 29.6187 43.0553 31.0074 44.7327 32.9096C46.4081 34.8136 47.2458 37.0125 47.2458 39.5063C47.2458 42.6125 46.2542 44.975 44.2708 46.5938C42.2875 48.2125 39.8319 49.2188 36.9042 49.6125V55.125H31.2375Z" fill="white"/>
</svg>
