<svg width="52" height="52" viewBox="0 0 52 52" fill="none" xmlns="http://www.w3.org/2000/svg">
<path d="M43.706 14.6249H39.6738L29.7808 24.5136C30.1216 25.382 30.1529 26.3412 29.8696 27.23C29.5863 28.1187 29.0055 28.8828 28.2251 29.3938C27.4446 29.9047 26.512 30.1314 25.5841 30.0356C24.6562 29.9398 23.7896 29.5274 23.13 28.8678C22.4704 28.2082 22.058 27.3416 21.9622 26.4137C21.8664 25.4858 22.093 24.5532 22.604 23.7727C23.1149 22.9923 23.8791 22.4115 24.7678 22.1282C25.6566 21.8449 26.6158 21.8762 27.4842 22.2169L37.375 12.3261V8.29394C37.3752 7.7544 37.5895 7.23698 37.9708 6.85528L41.7192 3.10695C41.7884 3.03693 41.8755 2.98719 41.971 2.96313C42.0665 2.93907 42.1667 2.9416 42.2608 2.97045C42.4537 3.02678 42.5967 3.18711 42.6357 3.38428L43.6323 8.36978L48.6157 9.36644C48.8107 9.40544 48.971 9.54844 49.0273 9.74128C49.0558 9.83495 49.0583 9.93458 49.0347 10.0296C49.011 10.1246 48.9621 10.2114 48.893 10.2808L45.1425 14.0291C44.954 14.218 44.7301 14.3678 44.4836 14.47C44.2371 14.5723 43.9729 14.6249 43.706 14.6249Z" fill="white"/>
<path d="M5.6875 26C5.6875 31.3872 7.82756 36.5538 11.6369 40.3631C15.4462 44.1724 20.6128 46.3125 26 46.3125C28.6675 46.3125 31.3088 45.7871 33.7733 44.7663C36.2377 43.7455 38.4769 42.2493 40.3631 40.3631C42.2493 38.4769 43.7455 36.2377 44.7663 33.7733C45.7871 31.3088 46.3125 28.6675 46.3125 26C46.3125 24.0543 46.0395 22.1737 45.5303 20.3948C45.4291 19.9864 45.4903 19.5546 45.701 19.1904C45.9117 18.8261 46.2554 18.5578 46.6599 18.4419C47.0644 18.3259 47.4981 18.3714 47.8698 18.5688C48.2414 18.7661 48.522 19.1 48.6525 19.5C49.2462 21.567 49.5625 23.7467 49.5625 26C49.5625 39.013 39.013 49.5625 26 49.5625C12.987 49.5625 2.4375 39.013 2.4375 26C2.4375 12.987 12.987 2.43751 26 2.43751C28.1992 2.43534 30.3853 2.74084 32.5 3.34534C32.7062 3.40318 32.8989 3.5012 33.0671 3.63377C33.2353 3.76634 33.3756 3.93084 33.48 4.11782C33.5844 4.3048 33.6508 4.51056 33.6754 4.72329C33.7 4.93602 33.6823 5.15151 33.6233 5.35738C33.5643 5.56324 33.4653 5.75543 33.3318 5.92288C33.1983 6.09033 33.033 6.22974 32.8455 6.33311C32.6579 6.43648 32.4518 6.50175 32.239 6.52519C32.0261 6.54863 31.8107 6.52976 31.6052 6.46968C29.7823 5.94909 27.8957 5.68582 26 5.68751C20.6128 5.68751 15.4462 7.82757 11.6369 11.6369C7.82756 15.4462 5.6875 20.6128 5.6875 26Z" fill="white"/>
<path d="M15.4375 26C15.4436 27.4351 15.742 28.8538 16.3147 30.1697C16.8873 31.4855 17.7222 32.6708 18.7682 33.6532C19.8143 34.6356 21.0496 35.3946 22.3987 35.8836C23.7478 36.3727 25.1825 36.5817 26.6151 36.4978C28.0477 36.4139 29.4481 36.0389 30.731 35.3957C32.0138 34.7525 33.1521 33.8546 34.0763 32.7568C35.0005 31.659 35.6913 30.3844 36.1065 29.0107C36.5217 27.637 36.6525 26.1931 36.491 24.7672C36.4455 24.4784 36.479 24.1827 36.5879 23.9114C36.6968 23.6401 36.877 23.4032 37.1095 23.226C37.342 23.0488 37.6182 22.9378 37.9086 22.9047C38.1991 22.8717 38.4931 22.9178 38.7595 23.0382C39.3033 23.2809 39.6695 23.7987 39.7172 24.3924C40.0536 27.2421 39.4939 30.1258 38.1158 32.6427C36.7377 35.1596 34.6097 37.1847 32.0276 38.4364C29.4455 39.6881 26.5376 40.1043 23.7081 39.6271C20.8786 39.15 18.268 37.8032 16.2392 35.7739C14.211 33.7468 12.8638 31.1388 12.3845 28.3116C11.9052 25.4844 12.3176 22.5781 13.5645 19.9959C14.8113 17.4136 16.8308 15.2833 19.3429 13.9005C21.855 12.5176 24.7351 11.9508 27.5838 12.2785C27.7992 12.2985 28.0084 12.3613 28.1992 12.4632C28.39 12.565 28.5585 12.704 28.6949 12.8718C28.8313 13.0397 28.9328 13.2331 28.9935 13.4407C29.0541 13.6483 29.0728 13.8659 29.0482 14.0808C29.0237 14.2957 28.9566 14.5035 28.8507 14.6921C28.7448 14.8807 28.6023 15.0463 28.4316 15.1791C28.2609 15.3119 28.0655 15.4093 27.8566 15.4656C27.6478 15.5219 27.4298 15.5359 27.2155 15.5069C25.7357 15.3358 24.2365 15.4796 22.8162 15.9288C21.396 16.378 20.0867 17.1225 18.9745 18.1134C17.8622 19.1043 16.9721 20.3193 16.3625 21.6785C15.753 23.0377 15.4377 24.5104 15.4375 26Z" fill="white"/>
</svg>
